<svg xmlns="http://www.w3.org/2000/svg" viewBox="0 0 960 720" role="img" aria-labelledby="title desc">
  <title id="title">Figure by the sea</title>
  <desc id="desc">An abstract backlit figure looking over the ocean at sunrise.</desc>
  <defs>
    <linearGradient id="sky" x1="0" y1="0" x2="0.9" y2="1">
      <stop offset="0%" stop-color="#ffffff"/>
      <stop offset="45%" stop-color="#fff2d5"/>
      <stop offset="100%" stop-color="#d3e5ef"/>
    </linearGradient>
    <radialGradient id="flare" cx="0.73" cy="0.35" r="0.22">
      <stop offset="0%" stop-color="#fff2b8"/>
      <stop offset="70%" stop-color="#ffd793" stop-opacity=".78"/>
      <stop offset="100%" stop-color="#ffd793" stop-opacity="0"/>
    </radialGradient>
  </defs>
  <rect width="960" height="720" fill="url(#sky)"/>
  <rect y="430" width="960" height="290" fill="#edf3f6"/>
  <path d="M0 516c167-47 320-56 458-28 121 24 289 20 502-10v242H0Z" fill="#d7e1e8"/>
  <path d="M576 433c72 2 144 24 217 67-102 27-220 42-353 45-146 3-286-9-419-37 85-41 170-63 253-67 90 20 192 17 302-8Z" fill="#8d969d"/>
  <path d="M515 110c-6 47-11 104-14 172-5 118 2 230 20 337h219c-21-75-44-189-69-344-14-87-20-142-17-165Z" fill="#352a2d"/>
  <path d="M634 128c30 12 47 36 52 72-15 21-35 33-60 37-31-7-47-21-47-42 0-22 18-44 55-67Z" fill="#4c3b40"/>
  <path d="M708 171c52 3 92 26 121 68-24 54-73 92-147 113-55-46-76-99-63-160 27-15 56-22 89-21Z" fill="#443338"/>
  <circle cx="704" cy="254" r="18" fill="#f4ede5"/>
  <rect width="960" height="720" fill="url(#flare)"/>
</svg>
